<?xml version="1.0" encoding="UTF-8"?>
<!-- <svg id="logo-white"
    xmlns="http://www.w3.org/2000/svg" viewBox="0 0 444.9 481.21"> -->
<svg width="56px" height="60px" viewBox="0 0 444.9 481.21" version="1.1" 
    xmlns="http://www.w3.org/2000/svg" 
    xmlns:xlink="http://www.w3.org/1999/xlink">
    <path d="M434,264.78H317.23a11.18,11.18,0,0,0-11.55,11.55v48c0,6.08,4.87,10.94,11.55,10.94h48.64V387c-12.16,4.86-38.3,15.2-72.35,15.2-76.6,0-136.79-63.84-136.79-139.23,0-76,60.19-141,136.18-141,33.44,0,65.66,12.16,91.81,35.27,5.47,4.86,10.94,4.86,15.8,0l37.7-39.52c4.86-4.87,4.25-12.16-.61-17C396.27,65.36,344,44.08,289.26,44.08,168.28,44.08,71,142,71,263.56s97.28,217.65,218.26,217.65C377.42,481.21,440,441.7,440,441.7A11.71,11.71,0,0,0,444.9,432V276.33C444.9,270.25,440,264.78,434,264.78ZM284.25,64.06a3.05,3.05,0,0,1,3-3h21.49a3,3,0,0,1,3,3V85.55a3,3,0,0,1-3,3H287.29a3,3,0,0,1-3-3Zm-66,7a3.05,3.05,0,0,1,3-3h21.49a3,3,0,0,1,3,3V92.55a3,3,0,0,1-3,3H221.29a3,3,0,0,1-3-3Zm-28,42.5a3.05,3.05,0,0,1,3-3h21.49a3,3,0,0,1,3,3v21.49a3,3,0,0,1-3,3H193.29a3,3,0,0,1-3-3Zm-37.75-14a3.05,3.05,0,0,1,3-3H177a3,3,0,0,1,3,3v21.49a3,3,0,0,1-3,3H155.54a3,3,0,0,1-3-3Zm-14,49.25a3.05,3.05,0,0,1,3-3H163a3,3,0,0,1,3,3V170.3a3,3,0,0,1-3,3H141.54a3,3,0,0,1-3-3Zm-35.25,28a3.05,3.05,0,0,1,3-3h21.49a3,3,0,0,1,3,3V198.3a3,3,0,0,1-3,3H106.29a3,3,0,0,1-3-3Zm4.32,82.24a3,3,0,0,1-3,3H83a3,3,0,0,1-3-3V237.56a3.05,3.05,0,0,1,3-3h21.49a3,3,0,0,1,3,3Zm9.68,53V290.56a3.05,3.05,0,0,1,3-3h21.49a3,3,0,0,1,3,3v21.49a3,3,0,0,1-3,3H120.29A3,3,0,0,1,117.25,312.05Zm34.57,65a3,3,0,0,1-3,3H127.29a3,3,0,0,1-3-3V355.56a3.05,3.05,0,0,1,3-3h21.49a3,3,0,0,1,3,3ZM165.08,55.57H139a.76.76,0,0,1-.76-.76v-26A.76.76,0,0,1,139,28h26.05a.76.76,0,0,1,.76.76V54.81A.76.76,0,0,1,165.08,55.57ZM41.34,26.81V.76A.76.76,0,0,0,40.58,0h-26a.76.76,0,0,0-.76.76V26.81a.76.76,0,0,0,.76.76H40.58A.76.76,0,0,0,41.34,26.81Zm0,56.5V57.26a.76.76,0,0,0-.76-.76h-26a.76.76,0,0,0-.76.76V83.31a.76.76,0,0,0,.76.76H40.58A.76.76,0,0,0,41.34,83.31Zm44.75,49.35v-26a.77.77,0,0,0-.76-.76H59.27a.77.77,0,0,0-.76.76v26.05a.77.77,0,0,0,.76.76H85.33A.77.77,0,0,0,86.09,132.66Zm13.5-48.75v-26a.77.77,0,0,0-.76-.76H72.77a.77.77,0,0,0-.76.76V83.91a.77.77,0,0,0,.76.76H98.83A.77.77,0,0,0,99.59,83.91Zm38.73,14.17V72a.76.76,0,0,0-.76-.76h-26a.76.76,0,0,0-.76.76V98.08a.76.76,0,0,0,.76.76h26.05A.76.76,0,0,0,138.32,98.08Zm-73.5,176V248a.76.76,0,0,0-.76-.76H38a.76.76,0,0,0-.76.76v26a.76.76,0,0,0,.76.76H64.06A.76.76,0,0,0,64.82,274.08Zm7.25,65.5V313.53a.76.76,0,0,0-.76-.76H45.26a.76.76,0,0,0-.76.76v26.05a.76.76,0,0,0,.76.76H71.31A.76.76,0,0,0,72.07,339.58ZM27.57,221.83V195.78a.76.76,0,0,0-.76-.76H.76a.76.76,0,0,0-.76.76v26.05a.76.76,0,0,0,.76.76H26.81A.76.76,0,0,0,27.57,221.83Zm23-61.5V134.28a.76.76,0,0,0-.76-.76h-26a.76.76,0,0,0-.76.76v26.05a.76.76,0,0,0,.76.76H49.81A.76.76,0,0,0,50.57,160.33ZM231.08,48.74H205a.76.76,0,0,1-.76-.76v-26a.76.76,0,0,1,.76-.76h26.05a.76.76,0,0,1,.76.76V48A.76.76,0,0,1,231.08,48.74Z" style="fill:#fff"/>
</svg>